<svg version="1" xmlns="http://www.w3.org/2000/svg" width="346.667" height="346.667" viewBox="0 0 260.000000 260.000000"><path d="M1.2 34.7l.3 24.7 4.3.9c5.4 1.1 11.6 6.9 13.1 12.4 1.5 5.3 1.5 107.4 0 112.8-1.5 5.6-8.6 12.3-13.9 13.1l-4 .7V250h122v-25c0-23-.1-25.1-1.7-25.6-4.4-1.3-10-4.7-11.8-7.2-1.8-2.5-2-4.5-2.3-23.5l-.3-20.7H153v19.8c0 17.3-.2 20.2-1.9 23.2-1.8 3.5-8.1 8-11.3 8-1.7 0-1.8 1.9-1.8 25.5V250h121v-50.7l-4-.7c-5.3-.8-12.4-7.5-13.9-13.1-1.5-5.4-1.5-107.5 0-112.8 1.5-5.5 7.7-11.3 13.1-12.4l4.3-.9.3-24.7.2-24.7H137v48.9l3.9 1.1c2.1.5 5 1.9 6.5 3.1 5.1 4 5.6 6.3 5.6 25.9v18h-6v7.4c0 7.7-1.3 10.4-4.5 9.2-1.2-.4-1.5-2.3-1.5-8.6v-8h-22v8c0 6.3-.3 8.2-1.5 8.6-3.2 1.2-4.5-1.5-4.5-9.2V107h-6V88.6c0-17.4.1-18.5 2.3-21.7 2.1-3.1 6.4-6 11-7.3 1.6-.5 1.7-2.6 1.7-25.1V10H1l.2 24.7z"/></svg>