<?xml version="1.0" encoding="UTF-8" standalone="no"?>
<svg
   xmlns:dc="http://purl.org/dc/elements/1.1/"
   xmlns:cc="http://creativecommons.org/ns#"
   xmlns:rdf="http://www.w3.org/1999/02/22-rdf-syntax-ns#"
   xmlns:svg="http://www.w3.org/2000/svg"
   xmlns="http://www.w3.org/2000/svg"
   viewBox="0 0 258.66666 258.66666"
   height="258.66666"
   width="258.66666"
   xml:space="preserve"
   id="svg2"
   version="1.1"><metadata
     id="metadata8"><rdf:RDF><cc:Work
         rdf:about=""><dc:format>image/svg+xml</dc:format><dc:type
           rdf:resource="http://purl.org/dc/dcmitype/StillImage" /></cc:Work></rdf:RDF></metadata><defs
     id="defs6" /><g
     transform="matrix(1.3333333,0,0,-1.3333333,0,258.66667)"
     id="g10"><g
       transform="scale(0.1)"
       id="g12"><path
         id="path14"
         style="fill:#ffffff;fill-opacity:1;fill-rule:evenodd;stroke:none"
         d="M 2.59766,1933.23 H 1930.16 V 5.66797 H 2.59766 V 1933.23" /><path
         id="path16"
         style="fill:#1e6db0;fill-opacity:1;fill-rule:evenodd;stroke:none"
         d="m 888.305,987.078 c -2.52,22.672 -12.594,45.332 -22.672,65.482 -25.18,45.33 -73.035,78.08 -120.883,93.19 25.18,10.07 45.332,27.7 62.957,45.33 15.117,17.63 30.227,37.78 40.301,57.93 2.519,7.55 2.519,15.11 5.035,22.66 0,7.56 2.52,15.12 2.52,22.67 0,17.63 0,35.26 -2.52,55.41 -5.035,52.89 -32.738,105.78 -80.59,136 -22.672,15.11 -47.851,22.67 -75.555,27.7 -30.226,7.56 -60.449,12.59 -90.675,15.11 -52.887,2.52 -105.774,2.52 -158.664,2.52 -70.52,0 -143.559,0 -216.594,0 -22.668,0 -45.332,0 -68,0 -5.035,0 -7.555,0 -12.594,0 v -5.04 c 0,-32.74 0,-67.99 0,-100.74 0,-62.96 0,-125.92 0,-191.41 -2.523,-73.03 -2.523,-148.59 -2.523,-221.62 0,-68.008 0,-133.489 0,-198.969 0,-40.297 0,-80.594 -2.512,-120.891 0,-2.519 0,-7.558 0,-12.594 40.297,0 80.59,0 120.887,0 73.039,0 146.078,0 219.113,0 42.816,0 85.633,0 128.445,0 60.446,2.52 120.895,15.114 171.262,47.856 47.852,30.223 85.629,80.59 100.742,133.48 2.52,17.629 5.035,32.739 7.555,47.852 v 15.109 c 0,20.149 0,42.817 -5.035,62.965 z M 377.039,1211.23 c 0,47.85 0,95.7 0,143.56 52.891,0 105.781,2.51 158.668,2.51 27.707,-2.51 62.965,-2.51 80.594,-27.7 15.113,-20.15 20.148,-47.85 15.113,-70.52 -5.039,-27.7 -22.668,-50.37 -52.891,-55.41 -22.668,-5.03 -45.332,-5.03 -68,-5.03 -30.226,0 -62.964,0 -93.187,0 -12.594,0 -25.188,0 -37.777,0 -2.52,0 -2.52,0 -2.52,0 0,5.03 0,7.55 0,12.59 z M 623.855,876.262 c -17.632,-10.074 -37.777,-10.074 -57.925,-10.074 -27.703,0 -55.407,0 -80.594,0 -37.777,0 -75.551,0 -113.332,0 0,55.41 0,110.82 0,166.222 0,5.04 0,10.08 0,15.11 v 5.04 c 2.516,0 5.035,0 5.035,0 5.039,0 10.078,0 15.109,0 32.747,0 68,0 100.747,0 25.183,0 50.367,0 75.554,0 22.668,0 47.852,-5.04 65.481,-22.67 22.668,-22.66 35.258,-52.882 35.258,-85.628 -2.516,-27.703 -20.145,-55.407 -45.333,-68" /><path
         id="path18"
         style="fill:#1e6db0;fill-opacity:1;fill-rule:evenodd;stroke:none"
         d="m 1177.93,903.965 c -12.59,0 -22.66,0 -35.25,0 -57.93,0 -118.38,0 -178.821,0 -2.519,0 0,-7.555 0,-10.074 0,-12.59 0,-25.184 0,-37.778 0,-35.258 0,-70.515 0,-108.293 0,-22.668 0,-45.34 0,-65.484 0,-2.52 47.851,-2.52 50.371,-2.52 55.41,0 113.34,0 168.74,0 0,47.856 0,95.707 0,143.559 0,25.184 0,52.887 0,78.074 0,5.035 0,2.516 -5.04,2.516" /><path
         id="path20"
         style="fill:#1f2a2f;fill-opacity:1;fill-rule:evenodd;stroke:none"
         d="m 253.633,495.965 c 7.555,2.515 20.148,10.074 20.148,30.223 0,17.628 -10.078,40.296 -50.371,40.296 H 145.336 V 410.336 h 68 c 35.258,0 42.812,7.555 52.887,15.109 7.558,7.555 12.593,20.149 12.593,32.739 0,15.113 -5.035,30.222 -25.183,37.781 z m -70.52,37.777 h 27.703 c 12.594,0 17.625,-2.519 17.625,-12.594 0,-10.074 -7.546,-15.109 -15.105,-15.109 h -30.223 v 27.703 z m 35.258,-90.668 h -35.258 v 35.258 h 35.258 c 10.07,0 20.149,-2.516 20.149,-15.109 0,-12.59 -7.555,-20.149 -20.149,-20.149" /><path
         id="path22"
         style="fill:#1f2a2f;fill-opacity:1;fill-rule:evenodd;stroke:none"
         d="m 331.707,483.371 c 2.52,15.109 10.074,22.668 25.184,22.668 10.074,0 22.668,-5.039 25.187,-22.668 h -50.371 z m 50.371,-35.258 c -2.519,-7.558 -12.594,-12.593 -22.668,-12.593 -25.183,0 -27.703,17.628 -30.222,27.703 h 88.148 v 5.039 c 0,52.886 -35.258,62.961 -60.445,62.961 -55.407,0 -60.446,-45.332 -60.446,-57.926 0,-47.852 27.703,-62.961 62.965,-62.961 22.668,0 47.856,10.074 55.406,37.777 h -32.738" /><path
         id="path24"
         style="fill:#1f2a2f;fill-opacity:1;fill-rule:evenodd;stroke:none"
         d="m 437.484,523.668 h 32.743 v -17.629 c 7.55,10.074 15.109,22.664 35.265,22.664 0,0 2.512,0 5.031,0 v -32.738 c -2.519,2.515 -5.031,2.515 -10.074,2.515 -25.187,0 -30.222,-15.109 -30.222,-27.703 v -60.441 h -32.743 v 113.332" /><path
         id="path26"
         style="fill:#1f2a2f;fill-opacity:1;fill-rule:evenodd;stroke:none"
         d="m 563.414,410.336 h -32.742 v 153.629 h 32.742 v -83.113 l 42.809,42.816 h 40.3 l -45.332,-42.816 45.332,-70.516 h -37.777 l -30.223,50.367 -15.109,-12.59 v -37.777" /><path
         id="path28"
         style="fill:#1f2a2f;fill-opacity:1;fill-rule:evenodd;stroke:none"
         d="m 684.301,483.371 c 2.519,15.109 10.078,22.668 27.703,22.668 10.074,0 22.672,-5.039 25.187,-22.668 h -52.89 z m 50.375,-35.258 c -2.524,-7.558 -12.598,-12.593 -20.149,-12.593 -27.707,0 -30.226,17.628 -30.226,27.703 h 85.629 v 5.039 c 0,52.886 -32.739,62.961 -57.926,62.961 -55.406,0 -60.441,-45.332 -60.441,-57.926 0,-47.852 27.703,-62.961 62.964,-62.961 20.149,0 45.332,10.074 55.403,37.777 h -35.254" /><path
         id="path30"
         style="fill:#1f2a2f;fill-opacity:1;fill-rule:evenodd;stroke:none"
         d="m 792.598,523.668 h 30.226 v -17.629 h 2.512 c 5.043,10.074 12.598,22.664 32.746,22.664 2.516,0 5.035,0 7.551,0 v -32.738 c -2.516,2.515 -7.551,2.515 -10.07,2.515 -25.184,0 -30.227,-15.109 -30.227,-27.703 v -60.441 h -32.738 v 113.332" /><path
         id="path32"
         style="fill:#1f2a2f;fill-opacity:1;fill-rule:evenodd;stroke:none"
         d="m 1004.16,521.148 h -25.187 v -83.109 c 0,-17.629 10.07,-20.148 25.187,-20.148 v -7.555 c -17.633,0 -35.262,2.519 -32.742,27.703 v 83.109 H 948.75 v 7.555 h 22.668 v 35.262 h 7.555 v -35.262 h 25.187 v -7.555" /><path
         id="path34"
         style="fill:#1f2a2f;fill-opacity:1;fill-rule:evenodd;stroke:none"
         d="m 1107.42,433 c 0,-7.555 0,-15.109 7.55,-15.109 0,0 2.52,0 5.04,2.519 v -7.555 c -2.52,0 -5.04,-2.519 -5.04,-2.519 -15.11,0 -17.63,7.555 -17.63,17.629 v 7.555 0 c -5.04,-15.11 -20.15,-27.704 -42.81,-27.704 -22.67,0 -40.3,10.075 -40.3,32.739 0,27.707 25.18,32.742 42.81,35.261 40.3,2.516 40.3,5.036 40.3,25.184 0,5.039 -5.04,22.668 -30.22,22.668 -22.67,0 -35.26,-12.594 -37.78,-32.742 h -7.55 c 0,27.703 17.62,40.297 45.33,40.297 20.15,0 40.3,-7.555 40.3,-30.223 v -68 z m -10.08,45.332 c -5.04,-7.555 -25.18,-7.555 -40.3,-10.07 -22.66,-2.52 -32.74,-10.078 -32.74,-27.707 0,-12.59 10.08,-25.184 30.23,-25.184 40.29,0 42.81,35.262 42.81,40.297 v 22.664" /><path
         id="path36"
         style="fill:#1f2a2f;fill-opacity:1;fill-rule:evenodd;stroke:none"
         d="m 1142.68,501 v 0 c 5.03,15.113 25.18,27.703 45.33,27.703 v -7.555 c -7.56,0 -20.15,-2.519 -32.74,-12.585 -7.56,-7.563 -10.08,-15.118 -12.59,-32.747 v -65.48 h -7.56 v 118.367 h 7.56 V 501" /><path
         id="path38"
         style="fill:#1f2a2f;fill-opacity:1;fill-rule:evenodd;stroke:none"
         d="m 1198.08,574.039 h 7.56 V 465.742 l 73.04,62.961 h 12.59 l -50.37,-45.332 52.89,-73.035 h -10.08 l -50.37,67.996 -27.7,-22.664 v -45.332 h -7.56 v 163.703" /><path
         id="path40"
         style="fill:#1f2a2f;fill-opacity:1;fill-rule:evenodd;stroke:none"
         d="m 1409.64,410.336 h -10.07 l -47.86,118.367 h 10.08 L 1404.6,420.41 v 0 l 40.3,108.293 h 10.08 l -45.34,-118.367" /><path
         id="path42"
         style="fill:#1f2a2f;fill-opacity:1;fill-rule:evenodd;stroke:none"
         d="m 1553.2,433 c 0,-7.555 0,-15.109 7.55,-15.109 2.52,0 2.52,0 5.04,2.519 v -7.555 c -2.52,0 -2.52,-2.519 -5.04,-2.519 -15.11,0 -17.62,7.555 -17.62,17.629 v 7.555 0 c -5.04,-15.11 -20.16,-27.704 -42.82,-27.704 -22.67,0 -37.78,10.075 -37.78,32.739 0,27.707 22.67,32.742 42.82,35.261 37.78,2.516 40.29,5.036 40.29,25.184 0,5.039 -7.55,22.668 -32.74,22.668 -22.67,0 -35.26,-12.594 -37.77,-32.742 h -7.56 c 0,27.703 17.63,40.297 45.33,40.297 20.15,0 40.3,-7.555 40.3,-30.223 v -68 z m -10.07,45.332 c -5.04,-7.555 -25.19,-7.555 -40.3,-10.07 -20.15,-2.52 -32.74,-10.078 -32.74,-27.707 0,-12.59 10.07,-25.184 30.22,-25.184 40.3,0 42.82,35.262 42.82,40.297 v 22.664" /><path
         id="path44"
         style="fill:#1f2a2f;fill-opacity:1;fill-rule:evenodd;stroke:none"
         d="m 1583.42,574.039 h 7.56 V 410.336 h -7.56 v 163.703" /><path
         id="path46"
         style="fill:#1f2a2f;fill-opacity:1;fill-rule:evenodd;stroke:none"
         d="m 1621.2,574.039 h 7.55 v -25.187 h -7.55 z m 0,-45.336 h 7.55 V 410.336 h -7.55 v 118.367" /><path
         id="path48"
         style="fill:#1f2a2f;fill-opacity:1;fill-rule:evenodd;stroke:none"
         d="m 1656.46,574.039 h 10.07 V 465.742 l 70.52,62.961 h 12.59 l -50.37,-45.332 55.41,-73.035 h -12.59 l -50.38,67.996 -25.18,-22.664 v -45.332 h -10.07 v 163.703" /><path
         id="path50"
         style="fill:#1f2a2f;fill-opacity:1;fill-rule:evenodd;stroke:none"
         d="m 1774.83,435.52 h 12.59 v -25.184 h -12.59 v 25.184" /></g></g></svg>