<?xml version="1.0" encoding="UTF-8" standalone="no"?>
<!-- Created with Inkscape (http://www.inkscape.org/) -->
<svg
   xmlns:svg="http://www.w3.org/2000/svg"
   xmlns="http://www.w3.org/2000/svg"
   version="1.0"
   width="150"
   height="40">
  <path
     d="M 19.83505,2.8421709e-14 C 5.51523,2.8421709e-14 0,7.41403 0,19.58345 C 1e-05,30.76153 6.37237,39.20883 21.3447,39.20883 C 29.26698,39.20885 35.22337,36.87056 37.1121,35.7702 L 37.1121,17.948 L 19.1641,17.948 L 19.1641,22.51887 L 28.64131,22.51887 L 28.64131,33.17025 C 27.84289,33.83115 25.41403,34.63796 21.3447,34.63796 C 11.16801,34.63798 9.35141,26.52278 9.35141,19.58345 C 9.35141,11.65446 11.18479,4.57087 19.83505,4.57087 C 25.28655,4.57087 27.08974,7.89712 27.08974,10.65138 L 36.56695,10.65138 C 36.56694,4.4283 31.53648,2.8421709e-14 19.83505,2.8421709e-14 z M 49.14733,0.83869 L 49.14733,38.83142 L 57.66005,38.83142 L 57.66005,0.83869 L 49.14733,0.83869 z M 70.49203,0.83869 L 70.49203,38.83142 L 79.00475,38.83142 L 79.00475,22.51887 L 82.35951,22.51887 C 90.13754,22.51888 91.14062,24.55521 92.88509,30.61224 L 95.23343,38.83142 L 103.87195,38.83142 L 100.81073,28.1381 C 99.64829,24.11743 98.85658,20.86497 91.87866,19.70925 L 91.87866,19.62538 C 97.03997,18.68939 101.81716,16.8208 101.81716,10.81912 C 101.81717,3.38496 95.16298,0.83869 85.71428,0.83869 L 70.49203,0.83869 z M 124.5457,0.83869 L 108.56863,38.83142 L 116.82974,38.83142 L 120.8974,28.51551 L 137.67123,28.51551 L 141.73888,38.83142 L 150,38.83142 L 134.10679,0.83869 L 124.5457,0.83869 z M 79.00475,5.40956 L 85.71428,5.40956 C 90.51161,5.40956 93.17864,7.56667 93.17864,11.53201 C 93.17862,17.14787 87.66675,17.948 82.35951,17.948 L 79.00475,17.948 L 79.00475,5.40956 z M 129.20044,6.96114 L 129.36818,6.96114 L 135.78417,23.60917 L 122.78445,23.60917 L 129.20044,6.96114 z"
     style="fill:#231f20;fill-opacity:1;fill-rule:nonzero;stroke:none" />
</svg>
